<?xml version="1.0" encoding="UTF-8"?>
<svg id="Layer_2" data-name="Layer 2" xmlns="http://www.w3.org/2000/svg" xmlns:xlink="http://www.w3.org/1999/xlink" viewBox="0 0 238.89 56.96">
  <defs>
    <style>
      .cls-1 {
        fill: url(#linear-gradient-2);
      }

      .cls-2 {
        fill: url(#linear-gradient-6);
      }

      .cls-3 {
        fill: url(#linear-gradient-5);
      }

      .cls-4 {
        fill: url(#linear-gradient-3);
      }

      .cls-5 {
        fill: url(#linear-gradient);
      }

      .cls-6 {
        fill: url(#linear-gradient-4);
      }
    </style>
    <linearGradient id="linear-gradient" x1="228.47" y1="19.59" x2="236.17" y2="8.96" gradientUnits="userSpaceOnUse">
      <stop offset="0" stop-color="#1ad882"/>
      <stop offset=".5" stop-color="#12a463"/>
      <stop offset="1" stop-color="#1ad882"/>
    </linearGradient>
    <linearGradient id="linear-gradient-2" x1="24.27" y1="15.48" x2="3.88" y2="44.72" gradientUnits="userSpaceOnUse">
      <stop offset="0" stop-color="#9388ff"/>
      <stop offset=".5" stop-color="#0c7ad1"/>
      <stop offset="1" stop-color="#14e5d0"/>
    </linearGradient>
    <linearGradient id="linear-gradient-3" x1="19.76" y1="10.82" x2="-.64" y2="40.06" xlink:href="#linear-gradient-2"/>
    <linearGradient id="linear-gradient-4" x1="27.91" y1="18.02" x2="7.52" y2="47.26" xlink:href="#linear-gradient-2"/>
    <linearGradient id="linear-gradient-5" x1="44.65" y1="41.5" x2="3.33" y2="37.02" xlink:href="#linear-gradient-2"/>
    <linearGradient id="linear-gradient-6" x1="44.81" y1="25.12" x2="5.65" y2="20.88" xlink:href="#linear-gradient-2"/>
  </defs>
  <g id="Layer_1-2" data-name="Layer 1">
    <g>
      <g>
        <g>
          <path d="m40.05,56.22v-25.98h-6.67v-5.13h19.13v5.13h-6.67v25.98h-5.8Z"/>
          <path d="m55.56,56.22v-31.11h5.76v12.2h7.94v-12.2h5.76v31.11h-5.76v-14.1h-7.94v14.1h-5.76Z"/>
          <path d="m80.31,56.22v-31.11h15.98v5.17h-10.22v7.19h9.52v4.93h-9.52v8.57h10.47v5.25h-16.22Z"/>
          <path d="m100.8,56.22v-31.11h10.38c3.14,0,5.4.64,6.78,1.91,1.38,1.27,2.07,3.35,2.07,6.23,0,2.02-.37,3.61-1.11,4.78-.74,1.17-1.83,1.85-3.27,2.05,2.75.73,4.18,3.05,4.3,6.97v.4l.16,4.12c.05,1.17.2,2.11.44,2.82.24.71.62,1.32,1.13,1.83h-6.87c-.16-.53-.28-1.14-.36-1.85-.08-.71-.13-1.71-.16-3l-.08-3.25v-.83c0-1.8-.38-3.04-1.15-3.72-.77-.67-2.33-1.01-4.69-1.01h-1.98v13.66h-5.6Zm5.6-17.96h3.33c1.68,0,2.85-.34,3.5-1.01.65-.67.98-1.88.98-3.62,0-1.55-.36-2.63-1.07-3.25-.71-.62-2.01-.93-3.9-.93h-2.85v8.81Z"/>
          <path d="m124.68,56.22v-31.11h15.98v5.17h-10.22v7.19h9.52v4.93h-9.52v8.57h10.47v5.25h-16.22Z"/>
          <path d="m142.88,56.22l7.01-31.11h7.78l7.07,31.11h-6.24l-1.54-7.82h-6.67l-1.5,7.82h-5.92Zm8.32-12.49h4.93l-2.48-13.05-2.45,13.05Z"/>
          <path d="m167.79,56.22v-31.11h9.31c1.9,0,3.41.16,4.54.48s2.05.85,2.78,1.58c1.09,1.06,1.86,2.41,2.31,4.03s.68,4.15.68,7.57c0,4.42-.16,7.54-.46,9.36-.31,1.83-.84,3.38-1.58,4.66-.71,1.28-1.71,2.17-2.98,2.68-1.27.51-3.48.76-6.62.76h-7.98Zm5.68-4.59h2.57c1.31,0,2.22-.09,2.75-.28.53-.19.94-.51,1.25-.97.54-.81.92-1.92,1.15-3.32.23-1.41.34-3.66.34-6.76s-.13-5.21-.4-6.59c-.27-1.37-.73-2.41-1.38-3.11-.34-.35-.77-.6-1.3-.74-.53-.14-1.36-.21-2.49-.21h-2.49v21.98Z"/>
          <path d="m191.53,45.29h5.8v2c0,1.91.24,3.22.72,3.91s1.3,1.04,2.47,1.04,2.16-.31,2.8-.93c.64-.62.96-1.54.96-2.75,0-.93-.22-1.73-.67-2.39-.45-.67-1.41-1.53-2.89-2.58l-2.97-2.1c-2.56-1.78-4.19-3.25-4.88-4.4-.69-1.16-1.04-2.61-1.04-4.36,0-2.61.78-4.66,2.32-6.14,1.55-1.48,3.68-2.22,6.4-2.22,2.88,0,5.09.79,6.63,2.36,1.54,1.58,2.3,3.84,2.3,6.79,0,.3,0,.53,0,.69,0,.16-.02.3-.03.42h-5.5v-.83c0-1.68-.28-2.89-.83-3.62-.55-.73-1.46-1.09-2.73-1.09-.93,0-1.66.27-2.19.82-.53.55-.8,1.3-.8,2.27,0,1.31,1.19,2.75,3.58,4.34l.06.04,3.19,2.16c2.28,1.51,3.82,2.93,4.63,4.27s1.21,3.05,1.21,5.12c0,2.83-.81,5.01-2.42,6.55-1.62,1.54-3.93,2.3-6.93,2.3s-5.45-.81-6.98-2.42c-1.53-1.62-2.29-4.08-2.29-7.39,0-.35.03-.93.08-1.74v-.12Z"/>
          <path d="m220.67,56.22v-13.19l-8.16-17.92h6.42l4.71,11.7,4.65-11.7h6.24l-8.02,17.92v13.19h-5.84Z"/>
        </g>
        <circle class="cls-5" cx="232.32" cy="14.27" r="6.57"/>
      </g>
      <g>
        <path class="cls-1" d="m11.22,46.78c-1.02.81-1.66,1.89-2.19,3.05-.66,1.43-1.05,2.94-1.33,4.48-.05.29-.07.58-.12.87,0,.07-.05.14-.07.2-.03,0-.05,0-.07,0,0-.06-.03-.11-.03-.17,0-2-.01-4-.03-5.99,0-.1,0-.18.13-.21.62-.18.94-.71.82-1.38-.09-.5-.66-.94-1.22-.9-.47.03-.81.27-.99.7-.18.45-.14.89.22,1.26.14.16.29.3.52.34.12.03.1.12.1.21v3.39c0,.86,0,1.73,0,2.59,0,.06-.02.11-.03.16h-.06s-.03-.09-.03-.12c-.28-2.18-.83-4.29-1.87-6.23-.43-.82-.99-1.54-1.68-2.16q-.21-.19-.09-.45c.42-.92.69-1.87.89-2.86.16-.81.19-1.62.21-2.44,0-.04,0-.08,0-.12v-12.77h5.78v12.97c.01,1.13.13,2.25.45,3.33.2.69.48,1.35.73,2.02.04.1.05.17-.04.24Z"/>
        <path class="cls-4" d="m24.55,36.88L1.84,14.17C-1.38,10.95-.26,4.61,4.35,0h0s22.71,22.71,22.71,22.71c3.22,3.22,2.1,9.56-2.51,14.17h0Z"/>
        <path class="cls-6" d="m24.81,55.39L2.1,32.68C-1.12,29.46,0,23.11,4.61,18.51h0s22.71,22.71,22.71,22.71c3.22,3.22,2.1,9.56-2.51,14.17h0Z"/>
        <path class="cls-3" d="m27.22,40.72c3.4,3.33,2.22,9.89-2.63,14.66l-12.3-12.47c-2.41-2.45-3.98-5.92-4.73-9.96-.39-2.07-.55-4.29-.49-6.59.03-1.63.19-3.29.46-4.95l4.01,3.93,15.69,15.38Z"/>
        <path class="cls-2" d="m24.55,36.88l-8.99-8.99-7.72-7.76c.02-.12.04-.24.06-.35.1-.57.2-1.14.33-1.7.16-.79.35-1.58.57-2.37.07-.28.15-.56.24-.85.14-.47.28-.93.45-1.4.24-.72.49-1.44.78-2.16.12-.3.24-.6.37-.89.16-.39.34-.77.52-1.15.26-.56.53-1.11.82-1.66l15.1,15.1c3.22,3.22,2.1,9.56-2.51,14.17Z"/>
      </g>
    </g>
  </g>
</svg>