<?xml version="1.0" encoding="UTF-8"?>
<svg id="Layer_2" data-name="Layer 2" xmlns="http://www.w3.org/2000/svg" xmlns:xlink="http://www.w3.org/1999/xlink" viewBox="0 0 183.89 56.22">
  <defs>
    <style>
      .cls-1 {
        fill: url(#linear-gradient-2);
      }

      .cls-2 {
        fill: url(#linear-gradient-6);
      }

      .cls-3 {
        fill: url(#linear-gradient-5);
      }

      .cls-4 {
        fill: url(#linear-gradient-3);
      }

      .cls-5 {
        fill: url(#linear-gradient);
      }

      .cls-6 {
        fill: url(#linear-gradient-4);
      }
    </style>
    <linearGradient id="linear-gradient" x1="173.47" y1="26.59" x2="181.17" y2="15.96" gradientUnits="userSpaceOnUse">
      <stop offset="0" stop-color="#1ad882"/>
      <stop offset=".5" stop-color="#12a463"/>
      <stop offset="1" stop-color="#1ad882"/>
    </linearGradient>
    <linearGradient id="linear-gradient-2" x1="24.27" y1="15.48" x2="3.88" y2="44.72" gradientUnits="userSpaceOnUse">
      <stop offset="0" stop-color="#9388ff"/>
      <stop offset=".5" stop-color="#0c7ad1"/>
      <stop offset="1" stop-color="#14e5d0"/>
    </linearGradient>
    <linearGradient id="linear-gradient-3" x1="19.76" y1="10.82" x2="-.64" y2="40.06" xlink:href="#linear-gradient-2"/>
    <linearGradient id="linear-gradient-4" x1="27.91" y1="18.02" x2="7.52" y2="47.26" xlink:href="#linear-gradient-2"/>
    <linearGradient id="linear-gradient-5" x1="44.65" y1="41.5" x2="3.33" y2="37.02" xlink:href="#linear-gradient-2"/>
    <linearGradient id="linear-gradient-6" x1="44.81" y1="25.12" x2="5.65" y2="20.88" xlink:href="#linear-gradient-2"/>
  </defs>
  <g id="Layer_1-2" data-name="Layer 1">
    <g>
      <g>
        <g>
          <path d="m34.55,32.76c-.38,0-.57-.18-.57-.55v-4.48c0-.36.19-.55.57-.55h13.4c.38,0,.57.18.57.55v4.48c0,.36-.19.55-.57.55h-3.64c-.19,0-.28.09-.28.28v22.61c0,.38-.18.57-.55.57h-4.46c-.38,0-.57-.19-.57-.57v-22.61c0-.19-.09-.28-.28-.28h-3.62Z"/>
          <path d="m63.93,55.65c0,.38-.18.57-.55.57h-4.46c-.38,0-.57-.19-.57-.57v-9.76c0-.19-.09-.28-.28-.28h-1.68c-.19,0-.28.09-.28.28v9.76c0,.38-.18.57-.55.57h-4.47c-.38,0-.57-.19-.57-.57v-27.9c0-.38.19-.57.57-.57h4.47c.36,0,.55.19.55.57v12c0,.19.09.28.28.28h1.68c.19,0,.28-.09.28-.28v-12c0-.38.19-.57.57-.57h4.46c.36,0,.55.19.55.57v27.9Z"/>
          <path d="m66.51,56.22c-.38,0-.57-.19-.57-.57v-27.92c0-.36.19-.55.57-.55h12.28c.36,0,.55.18.55.55v4.48c0,.36-.18.55-.55.55h-6.99c-.19,0-.28.09-.28.28v6.71c0,.19.09.28.28.28h4.18c.38,0,.57.18.57.55v4.47c0,.38-.19.57-.57.57h-4.18c-.19,0-.28.09-.28.28v4.47c0,.19.09.28.28.28h6.99c.36,0,.55.18.55.55v4.46c0,.38-.18.57-.55.57h-12.28Z"/>
          <path d="m91.4,27.18c.93,0,1.72.32,2.38.97.65.66.97,1.45.97,2.38v8.36c0,1.44-.42,2.75-1.25,3.92.83,1.16,1.25,2.46,1.25,3.9v8.93c0,.38-.18.57-.55.57h-4.46c-.38,0-.57-.19-.57-.57v-8.93c0-.31-.11-.57-.32-.79-.22-.22-.48-.32-.79-.32h-.85c-.19,0-.28.09-.28.28v9.76c0,.38-.18.57-.55.57h-4.47c-.38,0-.57-.19-.57-.57v-27.92c0-.36.19-.55.57-.55h9.48Zm-4.46,12.57c0,.19.09.28.28.28h.85c.31,0,.57-.11.79-.34.22-.22.32-.48.32-.79v-5.58c0-.38-.19-.57-.57-.57h-1.39c-.19,0-.28.09-.28.28v6.71Z"/>
          <path d="m97.34,56.22c-.38,0-.57-.19-.57-.57v-27.92c0-.36.19-.55.57-.55h12.28c.36,0,.55.18.55.55v4.48c0,.36-.18.55-.55.55h-6.99c-.19,0-.28.09-.28.28v6.71c0,.19.09.28.28.28h4.18c.38,0,.57.18.57.55v4.47c0,.38-.19.57-.57.57h-4.18c-.19,0-.28.09-.28.28v4.47c0,.19.09.28.28.28h6.99c.36,0,.55.18.55.55v4.46c0,.38-.18.57-.55.57h-12.28Z"/>
          <path d="m120.58,56.22c-.38,0-.56-.19-.56-.57v-9.76c0-.19-.1-.28-.28-.28h-1.68c-.19,0-.28.09-.28.28v9.76c0,.38-.18.57-.55.57h-4.46c-.38,0-.57-.19-.57-.57v-24.57c0-1.08.38-1.99,1.15-2.75.75-.77,1.67-1.15,2.75-1.15h5.6c1.08,0,2,.38,2.77,1.15.75.75,1.13,1.67,1.13,2.75v24.57c0,.38-.18.57-.55.57h-4.46Zm-2.81-16.47c0,.19.09.28.28.28h1.68c.19,0,.28-.09.28-.28v-6.42c0-.38-.19-.57-.57-.57h-1.11c-.38,0-.57.19-.57.57v6.42Z"/>
          <path d="m141,52.32c0,1.08-.38,1.99-1.13,2.75-.77.77-1.69,1.15-2.77,1.15h-8.93c-.38,0-.57-.19-.57-.57v-27.9c0-.38.19-.57.57-.57h8.93c1.08,0,2,.38,2.77,1.15.75.75,1.13,1.67,1.13,2.75v21.23Zm-6.14-1.68c.38,0,.57-.19.57-.57v-16.75c0-.38-.19-.57-.57-.57h-1.39c-.19,0-.28.09-.28.28v17.31c0,.19.09.28.28.28h1.39Z"/>
          <path d="m153.06,27.18c.93,0,1.72.32,2.38.97.65.66.97,1.45.97,2.38v5.01c0,.38-.18.57-.55.57h-4.46c-.38,0-.57-.19-.57-.57v-2.22c0-.38-.19-.57-.57-.57h-1.11c-.38,0-.56.19-.56.57v3.48c0,.18.07.32.2.42l5.86,5.03c1.17,1.01,1.76,2.28,1.76,3.82v6.79c0,.93-.32,1.72-.97,2.36-.66.66-1.46.99-2.38.99h-6.69c-.93,0-1.72-.33-2.36-.99-.66-.65-.99-1.43-.99-2.36v-5.03c0-.36.19-.55.56-.55h4.47c.36,0,.55.18.55.55v2.24c0,.38.19.57.56.57h1.11c.38,0,.57-.19.57-.57v-3.47c0-.18-.07-.32-.2-.42l-5.86-5.03c-1.17-1.01-1.76-2.28-1.76-3.82v-6.79c0-.93.33-1.72.99-2.38.65-.65,1.43-.97,2.36-.97h6.69Z"/>
          <path d="m166.26,27.75c0-.38.19-.57.57-.57h4.46c.36,0,.55.19.55.57v25.11c0,.93-.32,1.72-.97,2.36-.66.66-1.46.99-2.38.99h-6.69c-.93,0-1.72-.33-2.36-.99-.66-.65-.99-1.43-.99-2.36v-5.03c0-.36.19-.55.57-.55h4.46c.36,0,.54.18.54.55v2.24c0,.38.19.57.57.57h1.11c.38,0,.57-.19.57-.57v-4.75c0-.19-.09-.28-.28-.28h-4.18c-.93,0-1.72-.32-2.36-.97s-.99-1.46-.99-2.38v-13.94c0-.38.19-.57.57-.57h4.46c.36,0,.54.19.54.57v11.15c0,.38.19.57.57.57h1.39c.19,0,.28-.09.28-.28v-11.44Z"/>
        </g>
        <circle class="cls-5" cx="177.32" cy="21.27" r="6.57"/>
      </g>
      <g>
        <path class="cls-1" d="m11.22,46.78c-1.02.81-1.66,1.89-2.19,3.05-.66,1.43-1.05,2.94-1.33,4.48-.05.29-.07.58-.12.87,0,.07-.05.14-.07.2-.03,0-.05,0-.07,0,0-.06-.03-.11-.03-.17,0-2-.01-4-.03-5.99,0-.1,0-.18.13-.21.62-.18.94-.71.82-1.38-.09-.5-.66-.94-1.22-.9-.47.03-.81.27-.99.7-.18.45-.14.89.22,1.26.14.16.29.3.52.34.12.03.1.12.1.21v3.39c0,.86,0,1.73,0,2.59,0,.06-.02.11-.03.16h-.06s-.03-.09-.03-.12c-.28-2.18-.83-4.29-1.87-6.23-.43-.82-.99-1.54-1.68-2.16q-.21-.19-.09-.45c.42-.92.69-1.87.89-2.86.16-.81.19-1.62.21-2.44,0-.04,0-.08,0-.12v-12.77h5.78v12.97c.01,1.13.13,2.25.45,3.33.2.69.48,1.35.73,2.02.04.1.05.17-.04.24Z"/>
        <path class="cls-4" d="m24.55,36.88L1.84,14.17C-1.38,10.95-.26,4.61,4.35,0h0s22.71,22.71,22.71,22.71c3.22,3.22,2.1,9.56-2.51,14.17h0Z"/>
        <path class="cls-6" d="m24.81,55.39L2.1,32.68C-1.12,29.46,0,23.11,4.61,18.51h0s22.71,22.71,22.71,22.71c3.22,3.22,2.1,9.56-2.51,14.17h0Z"/>
        <path class="cls-3" d="m27.22,40.72c3.4,3.33,2.22,9.89-2.63,14.66l-12.3-12.47c-2.41-2.45-3.98-5.92-4.73-9.96-.39-2.07-.55-4.29-.49-6.59.03-1.63.19-3.29.46-4.95l4.01,3.93,15.69,15.38Z"/>
        <path class="cls-2" d="m24.55,36.88l-8.99-8.99-7.72-7.76c.02-.12.04-.24.06-.35.1-.57.2-1.14.33-1.7.16-.79.35-1.58.57-2.37.07-.28.15-.56.24-.85.14-.47.28-.93.45-1.4.24-.72.49-1.44.78-2.16.12-.3.24-.6.37-.89.16-.39.34-.77.52-1.15.26-.56.53-1.11.82-1.66l15.1,15.1c3.22,3.22,2.1,9.56-2.51,14.17Z"/>
      </g>
    </g>
  </g>
</svg>