<?xml version="1.0" encoding="UTF-8"?>
<svg id="Layer_2" data-name="Layer 2" xmlns="http://www.w3.org/2000/svg" xmlns:xlink="http://www.w3.org/1999/xlink" viewBox="0 0 182.89 56.4">
  <defs>
    <style>
      .cls-1 {
        fill: url(#linear-gradient-2);
      }

      .cls-2 {
        fill: #fff;
      }

      .cls-3 {
        fill: url(#linear-gradient-6);
      }

      .cls-4 {
        fill: url(#linear-gradient-5);
      }

      .cls-5 {
        fill: url(#linear-gradient-3);
      }

      .cls-6 {
        fill: url(#linear-gradient);
      }

      .cls-7 {
        fill: url(#linear-gradient-4);
      }
    </style>
    <linearGradient id="linear-gradient" x1="172.47" y1="33.59" x2="180.17" y2="22.96" gradientUnits="userSpaceOnUse">
      <stop offset="0" stop-color="#1ad882"/>
      <stop offset=".5" stop-color="#12a463"/>
      <stop offset="1" stop-color="#1ad882"/>
    </linearGradient>
    <linearGradient id="linear-gradient-2" x1="24.27" y1="15.48" x2="3.88" y2="44.72" gradientUnits="userSpaceOnUse">
      <stop offset="0" stop-color="#9388ff"/>
      <stop offset=".5" stop-color="#0c7ad1"/>
      <stop offset="1" stop-color="#14e5d0"/>
    </linearGradient>
    <linearGradient id="linear-gradient-3" x1="19.76" y1="10.82" x2="-.64" y2="40.06" xlink:href="#linear-gradient-2"/>
    <linearGradient id="linear-gradient-4" x1="27.91" y1="18.02" x2="7.52" y2="47.26" xlink:href="#linear-gradient-2"/>
    <linearGradient id="linear-gradient-5" x1="44.65" y1="41.5" x2="3.33" y2="37.02" xlink:href="#linear-gradient-2"/>
    <linearGradient id="linear-gradient-6" x1="44.81" y1="25.12" x2="5.65" y2="20.88" xlink:href="#linear-gradient-2"/>
  </defs>
  <g id="Layer_1-2" data-name="Layer 1">
    <g>
      <g>
        <g>
          <path class="cls-2" d="m46.64,37.4v2h-5.13v16.82h-2.46v-16.82h-5.16v-2h12.74Z"/>
          <path class="cls-2" d="m63.35,37.4v18.82h-2.46v-8.53h-9.58v8.53h-2.46v-18.82h2.46v8.26h9.58v-8.26h2.46Z"/>
          <path class="cls-2" d="m69.18,39.39v6.29h6.86v2.02h-6.86v6.48h7.67v2.02h-10.12v-18.85h10.12v2.03h-7.67Z"/>
          <path class="cls-2" d="m89.67,56.22l-4.48-7.69h-2.97v7.69h-2.46v-18.82h6.07c1.42,0,2.62.24,3.6.73.98.49,1.71,1.14,2.2,1.97.49.83.73,1.77.73,2.83,0,1.3-.37,2.44-1.12,3.43-.75.99-1.87,1.65-3.36,1.97l4.73,7.88h-2.94Zm-7.45-9.67h3.62c1.33,0,2.33-.33,3-.99s1-1.53,1-2.63-.33-1.98-.99-2.59c-.66-.61-1.66-.92-3.01-.92h-3.62v7.13Z"/>
          <path class="cls-2" d="m97.83,39.39v6.29h6.86v2.02h-6.86v6.48h7.67v2.02h-10.12v-18.85h10.12v2.03h-7.67Z"/>
          <path class="cls-2" d="m119.53,52.03h-8.21l-1.51,4.19h-2.59l6.8-18.71h2.83l6.78,18.71h-2.59l-1.51-4.19Zm-.7-2l-3.4-9.5-3.4,9.5h6.8Z"/>
          <path class="cls-2" d="m136.99,38.54c1.5.77,2.66,1.86,3.46,3.28.8,1.42,1.2,3.1,1.2,5.02s-.4,3.6-1.2,5.01-1.95,2.49-3.46,3.24c-1.5.75-3.28,1.12-5.33,1.12h-5.86v-18.82h5.86c2.05,0,3.83.38,5.33,1.15Zm.23,13.72c1.28-1.29,1.92-3.09,1.92-5.41s-.64-4.17-1.93-5.48c-1.29-1.31-3.14-1.97-5.55-1.97h-3.4v14.8h3.4c2.43,0,4.28-.64,5.56-1.93Z"/>
          <path class="cls-2" d="m146.71,55.74c-.98-.44-1.75-1.05-2.31-1.84-.56-.78-.85-1.69-.86-2.71h2.62c.09.88.45,1.62,1.09,2.23s1.57.9,2.79.9,2.09-.29,2.77-.88c.67-.58,1.01-1.34,1.01-2.25,0-.72-.2-1.3-.59-1.75-.4-.45-.89-.79-1.48-1.03-.59-.23-1.39-.49-2.4-.76-1.24-.32-2.24-.65-2.98-.97-.75-.32-1.39-.83-1.92-1.53-.53-.69-.8-1.62-.8-2.79,0-1.03.26-1.93.78-2.73.52-.79,1.25-1.4,2.2-1.84.95-.43,2.03-.65,3.25-.65,1.76,0,3.21.44,4.33,1.32s1.76,2.05,1.9,3.51h-2.7c-.09-.72-.47-1.35-1.13-1.9-.67-.55-1.55-.82-2.65-.82-1.03,0-1.86.27-2.51.8-.65.53-.97,1.27-.97,2.23,0,.68.19,1.24.58,1.67.39.43.86.76,1.43.99.57.23,1.36.48,2.39.77,1.24.34,2.24.68,3,1.01.76.33,1.4.85,1.94,1.54.54.69.81,1.63.81,2.82,0,.92-.24,1.78-.73,2.59s-1.21,1.47-2.16,1.97-2.08.76-3.38.76-2.35-.22-3.33-.66Z"/>
          <path class="cls-2" d="m172.29,37.4l-6.13,11.72v7.1h-2.46v-7.1l-6.16-11.72h2.73l4.64,9.53,4.64-9.53h2.73Z"/>
        </g>
        <circle class="cls-6" cx="176.32" cy="28.27" r="6.57"/>
      </g>
      <g>
        <path class="cls-1" d="m11.22,46.78c-1.02.81-1.66,1.89-2.19,3.05-.66,1.43-1.05,2.94-1.33,4.48-.05.29-.07.58-.12.87,0,.07-.05.14-.07.2-.03,0-.05,0-.07,0,0-.06-.03-.11-.03-.17,0-2-.01-4-.03-5.99,0-.1,0-.18.13-.21.62-.18.94-.71.82-1.38-.09-.5-.66-.94-1.22-.9-.47.03-.81.27-.99.7-.18.45-.14.89.22,1.26.14.16.29.3.52.34.12.03.1.12.1.21v3.39c0,.86,0,1.73,0,2.59,0,.06-.02.11-.03.16h-.06s-.03-.09-.03-.12c-.28-2.18-.83-4.29-1.87-6.23-.43-.82-.99-1.54-1.68-2.16q-.21-.19-.09-.45c.42-.92.69-1.87.89-2.86.16-.81.19-1.62.21-2.44,0-.04,0-.08,0-.12v-12.77h5.78v12.97c.01,1.13.13,2.25.45,3.33.2.69.48,1.35.73,2.02.04.1.05.17-.04.24Z"/>
        <path class="cls-5" d="m24.55,36.88L1.84,14.17C-1.38,10.95-.26,4.61,4.35,0h0s22.71,22.71,22.71,22.71c3.22,3.22,2.1,9.56-2.51,14.17h0Z"/>
        <path class="cls-7" d="m24.81,55.39L2.1,32.68C-1.12,29.46,0,23.11,4.61,18.51h0s22.71,22.71,22.71,22.71c3.22,3.22,2.1,9.56-2.51,14.17h0Z"/>
        <path class="cls-4" d="m27.22,40.72c3.4,3.33,2.22,9.89-2.63,14.66l-12.3-12.47c-2.41-2.45-3.98-5.92-4.73-9.96-.39-2.07-.55-4.29-.49-6.59.03-1.63.19-3.29.46-4.95l4.01,3.93,15.69,15.38Z"/>
        <path class="cls-3" d="m24.55,36.88l-8.99-8.99-7.72-7.76c.02-.12.04-.24.06-.35.1-.57.2-1.14.33-1.7.16-.79.35-1.58.57-2.37.07-.28.15-.56.24-.85.14-.47.28-.93.45-1.4.24-.72.49-1.44.78-2.16.12-.3.24-.6.37-.89.16-.39.34-.77.52-1.15.26-.56.53-1.11.82-1.66l15.1,15.1c3.22,3.22,2.1,9.56-2.51,14.17Z"/>
      </g>
    </g>
  </g>
</svg>