<?xml version="1.0" encoding="UTF-8"?>
<svg id="Layer_2" data-name="Layer 2" xmlns="http://www.w3.org/2000/svg" xmlns:xlink="http://www.w3.org/1999/xlink" viewBox="0 0 180.89 71.06">
  <defs>
    <style>
      .cls-1 {
        fill: url(#linear-gradient-2);
      }

      .cls-2 {
        fill: #fff;
      }

      .cls-3 {
        fill: url(#linear-gradient-6);
      }

      .cls-4 {
        fill: url(#linear-gradient-5);
      }

      .cls-5 {
        fill: url(#linear-gradient-3);
      }

      .cls-6 {
        fill: url(#linear-gradient);
      }

      .cls-7 {
        fill: url(#linear-gradient-4);
      }
    </style>
    <linearGradient id="linear-gradient" x1="24.26" y1="689.17" x2="3.87" y2="659.93" gradientTransform="translate(0 704.65) scale(1 -1)" gradientUnits="userSpaceOnUse">
      <stop offset="0" stop-color="#9388ff"/>
      <stop offset=".5" stop-color="#0c7ad1"/>
      <stop offset="1" stop-color="#14e5d0"/>
    </linearGradient>
    <linearGradient id="linear-gradient-2" x1="19.76" y1="693.82" x2="-.64" y2="664.58" xlink:href="#linear-gradient"/>
    <linearGradient id="linear-gradient-3" x1="27.91" y1="686.63" x2="7.52" y2="657.39" xlink:href="#linear-gradient"/>
    <linearGradient id="linear-gradient-4" x1="44.65" y1="663.15" x2="3.33" y2="667.63" xlink:href="#linear-gradient"/>
    <linearGradient id="linear-gradient-5" x1="44.81" y1="679.53" x2="5.65" y2="683.77" xlink:href="#linear-gradient"/>
    <linearGradient id="linear-gradient-6" x1="170.46" y1="653.06" x2="178.16" y2="663.69" gradientTransform="translate(0 704.65) scale(1 -1)" gradientUnits="userSpaceOnUse">
      <stop offset="0" stop-color="#1ad882"/>
      <stop offset=".5" stop-color="#12a463"/>
      <stop offset="1" stop-color="#1ad882"/>
    </linearGradient>
  </defs>
  <g id="Layer_1-2" data-name="Layer 1">
    <g id="Layer_1-2" data-name="Layer 1-2">
      <g>
        <g>
          <path class="cls-6" d="m11.22,46.78c-1.02.81-1.66,1.89-2.19,3.05-.66,1.43-1.05,2.94-1.33,4.48-.05.29-.07.58-.12.87,0,.07-.05.14-.07.2h-.07c0-.06-.03-.11-.03-.17,0-2-.01-4-.03-5.99,0-.1,0-.18.13-.21.62-.18.94-.71.82-1.38-.09-.5-.66-.94-1.22-.9-.47.03-.81.27-.99.7-.18.45-.14.89.22,1.26.14.16.29.3.52.34.12.03.1.12.1.21v5.98c0,.06-.02.11-.03.16h-.06s-.03-.09-.03-.12c-.28-2.18-.83-4.29-1.87-6.23-.43-.82-.99-1.54-1.68-2.16-.14-.13-.17-.28-.09-.45.42-.92.69-1.87.89-2.86.16-.81.19-1.62.21-2.44v-12.89h5.78v12.97c.01,1.13.13,2.25.45,3.33.2.69.48,1.35.73,2.02.04.1.05.17-.04.24h0Z"/>
          <path class="cls-1" d="m24.55,36.88L1.84,14.17C-1.38,10.95-.26,4.61,4.35,0h0l22.71,22.71c3.22,3.22,2.1,9.56-2.51,14.17h0Z"/>
          <path class="cls-5" d="m24.81,55.39L2.1,32.68C-1.12,29.46,0,23.11,4.61,18.51h0l22.71,22.71c3.22,3.22,2.1,9.56-2.51,14.17h0Z"/>
          <path class="cls-7" d="m27.22,40.72c3.4,3.33,2.22,9.89-2.63,14.66l-12.3-12.47c-2.41-2.45-3.98-5.92-4.73-9.96-.39-2.07-.55-4.29-.49-6.59.03-1.63.19-3.29.46-4.95l4.01,3.93,15.69,15.38h-.01Z"/>
          <path class="cls-4" d="m24.55,36.88l-8.99-8.99-7.72-7.76c.02-.12.04-.24.06-.35.1-.57.2-1.14.33-1.7.16-.79.35-1.58.57-2.37.07-.28.15-.56.24-.85.14-.47.28-.93.45-1.4.24-.72.49-1.44.78-2.16.12-.3.24-.6.37-.89.16-.39.34-.77.52-1.15.26-.56.53-1.11.82-1.66l15.1,15.1c3.22,3.22,2.1,9.56-2.51,14.17h-.02Z"/>
        </g>
        <g>
          <path class="cls-2" d="m60.58,32.17c.16,0,.3.06.44.17.14.12.21.27.21.46,0,.23-.11.41-.32.53-.01.01-.16.12-.46.32-.29.2-.64.51-1.04.93.83.1,1.68.15,2.55.15s1.61-.06,2.31-.17c.69-.12,1.32-.28,1.86-.48.55-.21,1.03-.45,1.43-.72.4-.28.74-.58,1.01-.92.07-.08.14-.14.23-.19s.18-.07.28-.07c.18,0,.32.07.44.2.12.13.17.28.17.43s-.04.28-.12.37c-.27.35-.62.7-1.07,1.04-.44.34-.98.64-1.62.91s-1.36.48-2.18.64c-.82.16-1.74.24-2.75.24-.58,0-1.16-.02-1.73-.07-.58-.05-1.16-.12-1.73-.21-.26.37-.49.78-.71,1.23s-.39.95-.52,1.5c-.23.93-.36,1.92-.39,2.96-.03,1.04-.05,2.11-.07,3.19-.02,1.08-.07,2.16-.16,3.23s-.3,2.11-.63,3.1c-.25.75-.6,1.45-1.02,2.1-.43.64-.95,1.2-1.57,1.67-.62.47-1.32.84-2.11,1.12-.79.27-1.68.41-2.67.41-1.62,0-3.09-.32-4.4-.97-1.31-.64-2.45-1.66-3.41-3.05-.03-.06-.08-.13-.13-.23-.06-.1-.08-.2-.08-.3,0-.16.06-.3.17-.45.11-.14.27-.22.47-.22.12,0,.23.03.33.09s.18.14.23.22c.81,1.24,1.76,2.16,2.85,2.76s2.41.89,3.96.89c.82,0,1.56-.1,2.21-.31.66-.21,1.23-.5,1.74-.88.5-.38.94-.85,1.31-1.41s.67-1.19.92-1.9c.27-.78.44-1.67.51-2.69.07-1.02.12-2.08.14-3.18.02-1.1.06-2.21.12-3.32.06-1.11.21-2.16.46-3.15.12-.52.28-1,.48-1.45.2-.44.41-.85.63-1.23-1.49-.3-2.97-.68-4.44-1.14-1.47-.46-2.91-.9-4.31-1.33s-2.76-.8-4.06-1.11c-1.3-.31-2.53-.47-3.69-.47-1.05,0-2.03.15-2.92.45s-1.67.72-2.31,1.27c-.65.54-1.15,1.2-1.51,1.96-.36.77-.54,1.61-.54,2.55,0,.68.12,1.3.36,1.86s.57,1.06.99,1.47c.42.42.92.74,1.5.97.58.23,1.21.35,1.9.35s1.37-.11,1.93-.32c.57-.22,1.07-.49,1.5-.81.43-.32.8-.67,1.11-1.05.31-.38.56-.73.75-1.06.19-.33.38-.71.57-1.14.04-.12.12-.22.23-.3.11-.08.23-.12.37-.12.19,0,.34.06.46.19.12.13.17.27.17.44,0,.03,0,.06,0,.09,0,.03-.01.06-.03.09-.01.02-.07.17-.18.44-.11.27-.28.6-.52.98-.23.38-.53.8-.9,1.24s-.81.86-1.33,1.24c-.52.38-1.12.7-1.81.95-.68.25-1.46.38-2.34.38s-1.63-.15-2.36-.45-1.36-.71-1.9-1.23c-.54-.52-.96-1.14-1.27-1.86-.31-.72-.46-1.51-.46-2.36,0-1.13.22-2.16.65-3.07.43-.92,1.03-1.7,1.8-2.36.77-.65,1.67-1.16,2.71-1.52,1.04-.35,2.18-.53,3.4-.53.89,0,1.78.08,2.68.23.9.16,1.81.36,2.74.62.93.26,1.87.54,2.82.85.96.31,1.92.62,2.91.94.98.32,1.98.61,3,.89s2.05.5,3.11.68c.28-.34.55-.65.82-.92.27-.27.52-.49.73-.66.22-.17.4-.3.54-.4.14-.09.23-.15.25-.16.11-.06.21-.08.3-.08Z"/>
          <path class="cls-2" d="m63.33,53.93c.18-.38.38-.79.62-1.22.23-.44.48-.89.75-1.35s.55-.92.85-1.37c.3-.45.61-.88.93-1.28.32-.39.65-.67.97-.84.33-.17.64-.26.92-.26s.54.06.76.18c.22.12.39.27.53.47s.24.43.32.7c.07.27.11.56.11.87,0,.26-.03.6-.08,1.02s-.08.87-.08,1.34c0,.27.01.53.04.79.03.26.08.49.15.7.07.21.18.37.33.5.14.13.33.19.57.19.27,0,.53-.07.8-.22.27-.15.53-.35.78-.6.25-.25.5-.53.73-.83.23-.3.44-.61.63-.92.19-.31.36-.6.5-.88.14-.28.26-.52.35-.71.11-.26.3-.38.58-.38.19,0,.34.07.45.2.11.13.17.28.17.43,0,.09-.02.17-.05.25-.04.09-.13.27-.26.55-.13.28-.3.6-.52.97-.22.37-.47.75-.76,1.15-.29.4-.61.77-.96,1.11-.35.34-.73.62-1.13.83-.41.22-.83.32-1.27.32-.51,0-.92-.11-1.23-.32-.31-.22-.55-.49-.72-.82s-.29-.7-.35-1.12c-.06-.41-.09-.81-.09-1.2,0-.2,0-.41.03-.64s.04-.45.06-.67c.02-.22.04-.43.06-.62s.03-.36.03-.49c0-.34-.05-.58-.14-.7-.09-.12-.2-.18-.32-.18-.18,0-.38.1-.61.31s-.47.47-.72.81-.5.71-.75,1.12-.49.83-.72,1.24c-.23.41-.44.8-.63,1.17-.19.37-.34.68-.47.92-.23.47-.47.78-.71.94-.24.16-.45.24-.64.24-.34,0-.61-.14-.79-.41-.18-.27-.27-.6-.27-.99v-1.05c0-2.1,0-4.1,0-6,0-1.9.03-3.67.08-5.31s.13-3.12.25-4.45c.12-1.33.29-2.46.52-3.4.23-.94.53-1.66.89-2.17.36-.51.81-.77,1.36-.77.47,0,.86.13,1.18.38.32.26.58.6.78,1.04s.34.95.43,1.53c.09.58.13,1.2.13,1.84,0,1.31-.12,2.59-.36,3.85s-.56,2.49-.96,3.69-.87,2.37-1.4,3.5c-.53,1.14-1.09,2.25-1.68,3.32v2.91l.02.78Zm0-6.14c.47-1.02.89-2.02,1.27-2.99s.71-1.94.98-2.91c.27-.97.49-1.95.64-2.94.16-.99.23-2.03.23-3.11,0-.18,0-.46-.03-.85-.02-.39-.07-.78-.15-1.18-.08-.4-.21-.75-.38-1.05-.17-.3-.41-.45-.72-.45-.24,0-.46.16-.63.49-.18.33-.33.77-.47,1.33-.13.56-.24,1.21-.33,1.96s-.16,1.53-.22,2.36-.1,1.69-.12,2.56c-.03.88-.05,1.73-.06,2.56-.01.83-.02,1.6-.02,2.32v1.88Z"/>
          <path class="cls-2" d="m76.82,53.51c.23.32.53.58.9.77s.82.29,1.35.29,1.04-.13,1.48-.39c.44-.26.85-.6,1.21-1.02.37-.42.69-.89.98-1.42.29-.52.55-1.04.78-1.56.06-.12.13-.21.23-.27s.21-.09.33-.09c.19,0,.34.07.46.2.12.13.17.28.17.43,0,.06,0,.1-.02.14-.01.04-.03.08-.05.12-.77,1.69-1.6,2.96-2.51,3.81-.91.85-1.93,1.29-3.07,1.32-.73,0-1.37-.14-1.9-.42-.53-.28-.97-.65-1.32-1.1s-.6-.96-.77-1.52c-.17-.57-.25-1.13-.25-1.7s.07-1.09.21-1.56.34-.89.6-1.25c.26-.35.57-.63.93-.83.36-.2.76-.3,1.19-.3.25,0,.51.05.76.16.25.11.47.26.67.45.2.19.36.43.48.71s.18.59.18.95c0,.46-.08.88-.23,1.28-.16.4-.37.77-.64,1.12-.27.34-.6.66-.97.95-.38.29-.78.54-1.21.75Zm-.5-1.08c.34-.14.66-.33.94-.55.28-.22.52-.47.72-.73.2-.27.36-.55.47-.84.11-.29.17-.59.17-.89,0-.33-.08-.59-.25-.76-.17-.17-.36-.26-.58-.26-.3,0-.56.08-.77.25s-.38.38-.52.65c-.13.27-.23.56-.29.89-.06.33-.09.65-.09.97,0,.2.02.41.06.63.04.22.09.43.14.63Z"/>
          <path class="cls-2" d="m104.35,34.95c.17,0,.31.06.44.17.13.12.19.27.19.46,0,.24-.11.43-.32.55-.03.02-.18.13-.44.32-.26.19-.55.49-.86.92-.31.42-.61.98-.9,1.67-.29.69-.47,1.55-.55,2.57-.02.18-.04.36-.04.53,0,.18-.01.36-.02.53.2-.02.41-.04.62-.06s.45-.02.69-.02c.8,0,1.57.09,2.31.27.74.18,1.43.43,2.05.77,1.61-.64,2.84-1.5,3.7-2.56s1.28-2.25,1.28-3.56c0-.98-.24-1.85-.73-2.61s-1.17-1.4-2.06-1.92c-.88-.52-1.94-.92-3.16-1.2-1.23-.28-2.57-.42-4.04-.42-1.28,0-2.58.1-3.9.29-1.33.19-2.61.49-3.85.87-1.24.39-2.4.87-3.49,1.45-1.09.58-2.04,1.24-2.85,1.99s-1.45,1.58-1.91,2.51c-.47.92-.7,1.92-.7,3,0,.8.14,1.5.42,2.11s.65,1.11,1.11,1.52c.46.41.99.71,1.59.92.6.21,1.23.31,1.88.31.78,0,1.46-.08,2.05-.23.59-.16,1.08-.32,1.48-.51.4-.18.7-.35.91-.52.21-.16.32-.25.34-.27.08-.06.17-.12.27-.19s.21-.11.32-.11c.17,0,.31.06.43.17s.18.26.18.44-.06.32-.18.43c-.02.02-.16.14-.42.36-.26.22-.64.45-1.12.69-.49.24-1.08.47-1.79.67s-1.51.3-2.42.3c-.84,0-1.65-.14-2.41-.42-.76-.28-1.43-.68-2.01-1.2-.58-.52-1.04-1.16-1.37-1.91-.34-.75-.51-1.6-.51-2.56,0-1.05.22-2.07.65-3.04.43-.97,1.04-1.88,1.83-2.72.79-.84,1.73-1.61,2.83-2.29,1.1-.68,2.31-1.27,3.64-1.76,1.33-.49,2.75-.87,4.27-1.13,1.52-.27,3.09-.4,4.71-.4s3.17.16,4.55.49c1.38.33,2.57.8,3.57,1.42,1,.62,1.78,1.37,2.33,2.26.56.89.83,1.91.83,3.04,0,1.5-.43,2.86-1.29,4.08-.86,1.22-2.12,2.24-3.79,3.05.61.52,1.09,1.13,1.44,1.82s.61,1.4.78,2.11c.17.71.28,1.39.33,2.03.05.64.09,1.18.11,1.62.02.63.08,1.15.17,1.54.09.39.23.7.4.92.17.22.38.37.63.46.25.08.55.12.91.12.5,0,.96-.12,1.38-.36.42-.24.8-.54,1.14-.89.34-.35.64-.74.9-1.16.26-.42.48-.8.66-1.17.18-.36.31-.66.41-.9.09-.24.14-.36.14-.37.11-.28.3-.42.58-.42.19,0,.34.06.46.19s.17.27.17.44c0,.06-.01.13-.03.22-.01.04-.08.21-.19.51-.12.29-.29.65-.51,1.07-.22.42-.5.86-.83,1.34-.33.48-.72.92-1.16,1.32-.44.41-.93.74-1.48,1.01-.55.27-1.16.4-1.82.4-.59,0-1.08-.09-1.47-.28-.39-.19-.72-.46-.97-.82-.25-.36-.43-.8-.55-1.32s-.19-1.11-.21-1.77c-.01-.28-.03-.61-.05-.99-.02-.38-.06-.79-.12-1.22-.06-.43-.15-.87-.26-1.32-.11-.46-.27-.9-.47-1.33-.2-.43-.45-.84-.75-1.23-.3-.39-.67-.73-1.1-1.02-.85.29-1.74.51-2.66.67-.92.16-1.86.25-2.84.26v.5c0,1.37-.14,2.64-.41,3.84-.27,1.19-.71,2.23-1.32,3.11-.61.88-1.4,1.58-2.36,2.08s-2.14.76-3.53.76c-.69,0-1.37-.09-2.04-.27-.67-.18-1.3-.44-1.88-.76-.58-.32-1.1-.7-1.56-1.14-.46-.44-.82-.91-1.09-1.42-.06-.09-.08-.19-.08-.3,0-.16.06-.3.17-.42.12-.13.27-.19.46-.19.24,0,.43.11.55.32.24.43.56.83.95,1.2.39.37.82.68,1.31.94.48.26,1,.46,1.55.61s1.11.22,1.67.22c1.14,0,2.12-.2,2.93-.61s1.47-.98,1.98-1.73c.51-.75.88-1.65,1.12-2.7s.35-2.22.35-3.52v-.65c-.37-.12-.66-.29-.88-.52-.22-.22-.33-.49-.33-.82s.1-.6.32-.85.51-.44.9-.6c0-.25,0-.51.02-.76s.03-.5.05-.74c.07-.8.19-1.52.38-2.15.18-.63.4-1.19.65-1.67.25-.48.51-.88.77-1.22.27-.33.52-.61.75-.82.23-.22.43-.37.58-.47.16-.1.24-.16.27-.17.08-.04.17-.07.28-.07Zm1.57,9.29c-.19-.06-.37-.11-.55-.17s-.37-.1-.57-.14c-.21-.04-.43-.07-.68-.1-.25-.03-.54-.04-.86-.04-.58,0-1.05.03-1.42.1v.82c.68,0,1.37-.04,2.09-.12s1.38-.19,1.99-.35Z"/>
          <path class="cls-2" d="m120.04,53.51c.23.32.53.58.9.77s.82.29,1.35.29,1.04-.13,1.48-.39c.44-.26.85-.6,1.21-1.02.37-.42.69-.89.98-1.42.29-.52.55-1.04.78-1.56.06-.12.13-.21.23-.27s.21-.09.33-.09c.19,0,.34.07.46.2.12.13.17.28.17.43,0,.06,0,.1-.02.14-.01.04-.03.08-.05.12-.77,1.69-1.6,2.96-2.51,3.81-.91.85-1.93,1.29-3.07,1.32-.73,0-1.37-.14-1.9-.42-.53-.28-.97-.65-1.32-1.1s-.6-.96-.77-1.52c-.17-.57-.25-1.13-.25-1.7s.07-1.09.21-1.56.34-.89.6-1.25c.26-.35.57-.63.93-.83.36-.2.76-.3,1.19-.3.25,0,.51.05.76.16.25.11.47.26.67.45.2.19.36.43.48.71s.18.59.18.95c0,.46-.08.88-.23,1.28-.16.4-.37.77-.64,1.12-.27.34-.6.66-.97.95-.38.29-.78.54-1.21.75Zm-.5-1.08c.34-.14.66-.33.94-.55.28-.22.52-.47.72-.73.2-.27.36-.55.47-.84.11-.29.17-.59.17-.89,0-.33-.08-.59-.25-.76-.17-.17-.36-.26-.58-.26-.3,0-.56.08-.77.25s-.38.38-.52.65c-.13.27-.23.56-.29.89-.06.33-.09.65-.09.97,0,.2.02.41.06.63.04.22.09.43.14.63Z"/>
          <path class="cls-2" d="m139.62,50.7c-.04.09-.14.27-.28.56s-.32.61-.53.97c-.22.37-.47.75-.76,1.15-.29.4-.61.77-.97,1.1s-.74.61-1.15.82c-.41.22-.84.32-1.3.32-.64,0-1.18-.21-1.62-.62s-.76-.93-.96-1.55c-.38.63-.83,1.13-1.35,1.51-.52.37-1.04.56-1.57.56-.41,0-.78-.07-1.12-.22s-.62-.36-.85-.63-.41-.59-.54-.96c-.13-.37-.19-.77-.19-1.2,0-.87.15-1.63.44-2.29.29-.66.67-1.21,1.12-1.66.45-.44.96-.78,1.51-1,.55-.22,1.08-.33,1.59-.33.34,0,.66.05.95.14.29.09.54.2.74.31s.36.21.47.31.17.15.18.16c.12.14.18.29.18.45,0,.17-.06.31-.18.44-.12.13-.27.19-.43.19-.18,0-.33-.06-.45-.18-.02-.02-.07-.06-.15-.12-.08-.06-.18-.12-.32-.19-.13-.07-.29-.12-.47-.17-.18-.05-.39-.07-.62-.07-.34,0-.71.08-1.1.23-.39.16-.74.4-1.07.72-.32.33-.59.74-.81,1.23-.22.49-.32,1.08-.32,1.76,0,.21.02.42.07.64.04.22.12.41.23.59.11.18.26.32.45.43s.42.17.7.17c.2,0,.43-.07.69-.2.26-.13.51-.34.75-.62.24-.28.46-.63.65-1.05.19-.42.33-.92.41-1.5.02-.16.09-.29.22-.39s.27-.16.43-.16c.16,0,.29.06.41.18s.18.26.19.42c.01.21.03.51.07.89.03.38.11.76.22,1.14.12.38.29.71.52.98.23.28.56.42.97.42.27,0,.53-.07.79-.22.26-.14.52-.34.77-.57.25-.24.49-.51.72-.82s.44-.61.62-.92c.19-.31.35-.61.5-.9.14-.29.27-.54.37-.75.06-.12.14-.22.24-.28s.22-.1.34-.1c.19,0,.34.07.46.21.12.14.17.29.17.44,0,.08-.02.16-.05.23Z"/>
          <path class="cls-2" d="m144.93,50.5c.54,2.56,1.33,3.85,2.36,3.85.4,0,.78-.15,1.15-.44.37-.29.71-.65,1.02-1.08.32-.43.6-.88.84-1.36.24-.48.44-.89.6-1.25.11-.27.31-.4.58-.4.18,0,.33.07.45.2.12.13.18.28.18.43,0,.09-.02.17-.05.23-.08.19-.19.44-.34.76-.15.32-.33.66-.55,1.02-.22.36-.46.73-.72,1.11s-.56.72-.88,1.02c-.32.3-.66.55-1.02.74-.36.19-.74.29-1.14.29-.74,0-1.38-.26-1.91-.77-.53-.52-.99-1.37-1.38-2.56-.53,1.13-1.07,1.95-1.61,2.46-.54.51-1.13.77-1.76.77-.33,0-.66-.05-.97-.16-.31-.11-.58-.28-.82-.52-.23-.24-.42-.56-.57-.94-.14-.38-.22-.85-.22-1.41,0-.77.13-1.47.4-2.11s.61-1.2,1.03-1.66c.42-.46.89-.82,1.41-1.07.52-.26,1.03-.38,1.54-.38.17,0,.31.06.43.17.12.12.18.26.18.44,0,.16-.05.29-.15.42-.1.12-.23.19-.4.22-.33.04-.69.15-1.07.32-.38.17-.72.41-1.04.72s-.58.72-.78,1.21c-.21.49-.31,1.07-.31,1.75,0,.56.11.99.34,1.3.23.31.56.47.99.47.18,0,.37-.05.57-.14.2-.09.41-.28.64-.56.23-.28.48-.67.75-1.18.27-.51.57-1.18.91-2.01-.19-.98-.36-2.1-.52-3.38-.16-1.28-.23-2.7-.23-4.28,0-.69.02-1.41.07-2.16.04-.75.12-1.48.22-2.2.1-.72.23-1.4.4-2.04.17-.64.37-1.21.61-1.7.24-.49.52-.87.84-1.16.32-.28.69-.42,1.1-.42.37,0,.68.1.93.3.25.2.46.48.62.83.16.36.28.78.36,1.28.08.5.12,1.05.12,1.65,0,1.29-.11,2.58-.33,3.86-.22,1.29-.5,2.52-.82,3.7-.33,1.18-.67,2.26-1.04,3.26s-.7,1.86-1,2.58Zm1.95-13.42c0-.28,0-.58-.03-.9-.02-.32-.06-.62-.12-.91-.06-.28-.14-.52-.24-.71-.1-.19-.23-.28-.4-.28-.28,0-.54.24-.77.73-.24.49-.45,1.13-.62,1.92s-.32,1.69-.42,2.7-.16,2.02-.16,3.04.04,1.95.12,2.93c.08.98.17,1.85.27,2.61.32-.85.63-1.73.92-2.64.29-.9.54-1.83.76-2.77.22-.94.39-1.9.52-2.86.13-.96.19-1.92.19-2.87Z"/>
          <path class="cls-2" d="m152.77,49.18c-.07.18-.15.38-.24.6-.09.22-.2.46-.32.7-.1.19-.2.34-.31.44s-.24.16-.41.16c-.19,0-.34-.06-.45-.17s-.17-.25-.17-.41c0-.06,0-.1.02-.14.01-.04.04-.1.08-.19.29-.56.5-1.04.64-1.46s.25-.85.34-1.31c-.08-.25-.13-.47-.17-.65-.03-.18-.05-.36-.05-.55,0-.37.08-.66.23-.89s.37-.34.65-.34c.25,0,.46.11.61.33.15.22.22.49.22.82,0,.18-.02.36-.05.53-.03.18-.08.4-.13.67.25.63.51,1.19.77,1.68.25.49.48.94.68,1.34s.36.79.49,1.14c.13.36.19.71.19,1.07,0,.47-.09.91-.28,1.33-.19.42-.5.78-.93,1.07.06.01.11.02.17.02h.17c.63,0,1.22-.14,1.75-.43.53-.29,1.01-.66,1.44-1.12.43-.46.81-.97,1.14-1.53s.62-1.12.87-1.67c.11-.26.27-.38.47-.38.19,0,.34.07.44.2.11.13.16.28.16.43,0,.09-.02.17-.05.25-.12.3-.28.64-.47,1.02-.19.38-.43.78-.7,1.18-.27.41-.59.8-.94,1.19-.35.39-.75.74-1.19,1.04s-.92.55-1.44.73c-.52.18-1.09.27-1.71.27-.74,0-1.43-.13-2.07-.39s-1.16-.69-1.56-1.29c-.07-.1-.1-.21-.1-.32,0-.17.06-.31.19-.44.13-.13.27-.19.44-.19.18,0,.33.06.45.18.01.02.05.06.12.11s.15.11.24.17c.09.06.21.11.33.16.13.04.26.07.39.07.27,0,.49-.06.67-.17.18-.11.33-.25.44-.41.11-.16.19-.33.24-.52.05-.18.07-.34.07-.47,0-.28-.04-.55-.13-.83-.09-.28-.2-.55-.34-.83-.14-.28-.29-.56-.45-.86-.16-.29-.31-.6-.44-.92Z"/>
          <path class="cls-2" d="m165.77,55.58c.39-.39.78-.79,1.18-1.19.4-.4.79-.83,1.17-1.27.38-.44.73-.91,1.06-1.39.33-.48.62-1,.87-1.54.05-.12.13-.21.23-.27.1-.06.21-.09.33-.09.19,0,.34.07.46.2.12.13.17.28.17.45,0,.09-.02.17-.05.25-.34.72-.74,1.38-1.18,1.98-.44.6-.91,1.17-1.4,1.71-.49.54-.98,1.06-1.48,1.57-.5.5-.98,1.01-1.43,1.52-.04.77-.04,1.53,0,2.31.04.77.07,1.59.07,2.46,0,.71-.02,1.42-.07,2.13-.04.71-.12,1.39-.22,2.04-.1.65-.24,1.26-.41,1.82-.17.57-.39,1.06-.66,1.47-.27.42-.58.74-.93.98s-.77.36-1.25.36c-.79,0-1.39-.27-1.82-.82-.42-.54-.63-1.3-.63-2.28,0-.53.06-1.1.18-1.71.12-.61.28-1.24.49-1.89s.46-1.31.76-1.97.61-1.31.96-1.95c.34-.63.71-1.23,1.1-1.81.39-.57.78-1.09,1.18-1.56.02-.53.05-1.08.08-1.66.03-.57.06-1.1.09-1.59-.29.51-.65.92-1.07,1.23-.43.31-.9.47-1.41.47-.84,0-1.5-.28-1.98-.85-.48-.57-.72-1.34-.72-2.33,0-.72.07-1.38.21-1.97.14-.59.29-1.1.45-1.53s.31-.75.44-.98c.13-.23.2-.34.2-.32.12-.19.29-.28.52-.28.19,0,.34.06.46.19.12.13.17.27.17.44,0,.12-.03.23-.1.33.01-.01-.04.08-.16.27-.12.19-.24.47-.38.84s-.27.8-.38,1.31c-.12.51-.17,1.07-.17,1.68s.11,1.09.33,1.43.58.52,1.08.52c.63,0,1.2-.47,1.71-1.41.51-.94.94-2.3,1.3-4.09.02-.14.09-.26.2-.36.11-.09.24-.14.4-.14.18,0,.33.06.45.18s.18.27.18.45c0,.03-.02.23-.07.59-.04.36-.1.84-.16,1.44-.06.6-.12,1.3-.19,2.09-.07.79-.12,1.64-.17,2.54Zm-1.33,3.53c-.5.72-.96,1.48-1.37,2.28-.42.8-.77,1.59-1.07,2.38-.3.79-.53,1.54-.7,2.26-.17.72-.25,1.37-.25,1.93s.09,1.03.28,1.36c.19.33.49.49.9.49.37,0,.69-.18.97-.54.28-.36.52-.87.72-1.54s.34-1.47.44-2.42c.1-.95.15-2.01.15-3.19,0-.48,0-.96-.02-1.45s-.03-1.01-.04-1.56Z"/>
        </g>
        <circle class="cls-3" cx="174.32" cy="46.27" r="6.57"/>
      </g>
    </g>
  </g>
</svg>