<?xml version="1.0" encoding="UTF-8"?>
<svg id="Layer_2" data-name="Layer 2" xmlns="http://www.w3.org/2000/svg" xmlns:xlink="http://www.w3.org/1999/xlink" viewBox="0 0 52.45 99.61">
  <defs>
    <style>
      .cls-1 {
        fill: url(#linear-gradient-2);
      }

      .cls-2 {
        fill: url(#linear-gradient-5);
      }

      .cls-3 {
        fill: url(#linear-gradient-3);
      }

      .cls-4 {
        fill: url(#linear-gradient);
      }

      .cls-5 {
        fill: url(#linear-gradient-4);
      }
    </style>
    <linearGradient id="linear-gradient" x1="43.65" y1="27.84" x2="6.97" y2="80.43" gradientUnits="userSpaceOnUse">
      <stop offset="0" stop-color="#9388ff"/>
      <stop offset=".5" stop-color="#0c7ad1"/>
      <stop offset="1" stop-color="#14e5d0"/>
    </linearGradient>
    <linearGradient id="linear-gradient-2" x1="35.53" y1="19.47" x2="-1.14" y2="72.05" xlink:href="#linear-gradient"/>
    <linearGradient id="linear-gradient-3" x1="50.2" y1="32.41" x2="13.52" y2="85" xlink:href="#linear-gradient"/>
    <linearGradient id="linear-gradient-4" x1="80.31" y1="74.63" x2="5.99" y2="66.59" xlink:href="#linear-gradient"/>
    <linearGradient id="linear-gradient-5" x1="80.59" y1="45.18" x2="10.17" y2="37.55" xlink:href="#linear-gradient"/>
  </defs>
  <g id="Layer_1-2" data-name="Layer 1">
    <g>
      <path class="cls-4" d="m20.17,84.14c-1.83,1.45-2.98,3.41-3.95,5.48-1.19,2.57-1.9,5.29-2.39,8.06-.09.52-.13,1.05-.21,1.57-.01.13-.08.25-.12.37-.05,0-.08-.01-.12-.01-.01-.11-.05-.2-.05-.31-.01-3.59-.02-7.19-.05-10.77,0-.18.01-.32.24-.38,1.12-.32,1.69-1.28,1.47-2.49-.15-.91-1.19-1.69-2.19-1.63-.85.05-1.46.48-1.78,1.26-.33.81-.25,1.6.39,2.26.26.28.53.54.93.61.21.05.19.22.19.38v6.1c0,1.56.01,3.11,0,4.67,0,.11-.04.2-.06.29h-.11c-.02-.07-.05-.15-.06-.22-.51-3.92-1.5-7.71-3.37-11.21-.78-1.47-1.78-2.77-3.03-3.88q-.38-.34-.16-.8c.75-1.65,1.25-3.37,1.6-5.15.29-1.45.34-2.92.38-4.4,0-.07.01-.14.01-.22v-22.97h10.39v23.32c.02,2.03.24,4.04.8,5.99.37,1.24.86,2.43,1.31,3.63.07.19.08.31-.07.44Z"/>
      <path class="cls-1" d="m44.15,66.33L3.3,25.48C-2.49,19.69-.47,8.28,7.82,0h0s40.84,40.84,40.84,40.84c5.79,5.79,3.77,17.2-4.51,25.48h0Z"/>
      <path class="cls-3" d="m44.63,99.61L3.78,58.77C-2.01,52.98.01,41.57,8.3,33.28h0s40.84,40.84,40.84,40.84c5.79,5.79,3.77,17.2-4.51,25.48h0Z"/>
      <path class="cls-5" d="m48.95,73.24c6.12,5.99,3.99,17.78-4.74,26.37l-22.12-22.43c-4.34-4.41-7.15-10.65-8.51-17.91-.71-3.73-1-7.72-.88-11.86.05-2.93.35-5.91.82-8.9l7.21,7.07,28.21,27.65Z"/>
      <path class="cls-2" d="m44.15,66.32l-16.17-16.17-13.89-13.95c.04-.21.07-.42.11-.64.18-1.03.37-2.05.59-3.06.28-1.41.62-2.84,1.03-4.25.13-.51.27-1.01.42-1.52.25-.84.51-1.67.8-2.51.42-1.3.88-2.59,1.4-3.88.21-.54.44-1.07.66-1.6.29-.7.61-1.39.93-2.07.46-1,.95-2,1.47-2.98l27.16,27.16c5.79,5.79,3.77,17.19-4.51,25.48Z"/>
    </g>
  </g>
</svg>